<svg width="436" height="435" viewBox="0 0 436 435" fill="none" xmlns="http://www.w3.org/2000/svg">
<path d="M30.9172 217.495C30.9172 291.349 73.8385 355.174 136.078 385.419L47.0717 141.56C36.7187 164.765 30.9172 190.445 30.9172 217.495Z" fill="#6B7280"/>
<path d="M343.47 208.079C343.47 185.02 335.186 169.05 328.082 156.62C318.624 141.251 309.758 128.235 309.758 112.866C309.758 95.714 322.767 79.748 341.091 79.748C341.918 79.748 342.703 79.851 343.509 79.8972C310.312 49.4848 266.084 30.9165 217.507 30.9165C152.321 30.9165 94.9707 64.3608 61.6073 115.017C65.9849 115.149 70.1106 115.241 73.6148 115.241C93.1316 115.241 123.342 112.873 123.342 112.873C133.401 112.28 134.587 127.053 124.539 128.242C124.539 128.242 114.431 129.432 103.183 130.021L171.131 332.125L211.965 209.663L182.894 130.014C172.846 129.425 163.327 128.235 163.327 128.235C153.273 127.646 154.451 112.273 164.506 112.866C164.506 112.866 195.32 115.234 213.655 115.234C233.168 115.234 263.382 112.866 263.382 112.866C273.448 112.273 274.63 127.046 264.579 128.235C264.579 128.235 254.449 129.425 243.223 130.014L310.653 330.588L329.264 268.396C337.331 242.589 343.47 224.052 343.47 208.079Z" fill="#6B7280"/>
<path d="M220.781 233.816L164.797 396.489C181.513 401.403 199.19 404.091 217.507 404.091C239.236 404.091 260.073 400.334 279.469 393.514C278.969 392.715 278.514 391.867 278.142 390.944L220.781 233.816Z" fill="#6B7280"/>
<path d="M381.232 127.976C382.035 133.919 382.489 140.299 382.489 147.162C382.489 166.096 378.953 187.381 368.301 213.994L311.306 378.777C366.778 346.429 404.09 286.332 404.09 217.498C404.093 185.059 395.807 154.554 381.232 127.976Z" fill="#6B7280"/>
<path d="M217.507 0C97.5768 0 0 97.5673 0 217.495C0 337.436 97.5768 435 217.507 435C337.434 435 435.025 337.436 435.025 217.495C435.021 97.5673 337.434 0 217.507 0ZM217.507 425.031C103.076 425.031 9.97319 331.93 9.97319 217.495C9.97319 103.067 103.073 9.97294 217.507 9.97294C331.934 9.97294 425.03 103.067 425.03 217.495C425.03 331.93 331.934 425.031 217.507 425.031Z" fill="#6B7280"/>
</svg>
